<svg xmlns="http://www.w3.org/2000/svg" width="442.069" height="442.03" viewBox="0 0 442.069 442.03">
  <path id="Icon_ionic-md-clock" data-name="Icon ionic-md-clock" d="M380.731,68.086C294.45-18.2,154.51-18.2,68.123,68.086s-86.281,226.221,0,312.608c86.281,86.281,226.221,86.281,312.608,0C467.012,294.413,467.012,154.366,380.731,68.086ZM363.2,124.614a17.041,17.041,0,1,1-6.269,23.27A17.051,17.051,0,0,1,363.2,124.614ZM37.414,224.39a17,17,0,1,1,17,17A17.051,17.051,0,0,1,37.414,224.39Zm48.241,99.775a17.041,17.041,0,1,1,6.269-23.27A17.051,17.051,0,0,1,85.655,324.165Zm6.269-176.281a17.041,17.041,0,1,1-6.269-23.27A17.12,17.12,0,0,1,91.924,147.885Zm39-85.431a17.041,17.041,0,1,1-6.269,23.27A17.051,17.051,0,0,1,130.921,62.454Zm-8.288,117.627,16.576-28.264,101.157,60.46V360.4h-32.94V229.278Zm31.558,200.082a17.041,17.041,0,1,1-6.269-23.27A17.12,17.12,0,0,1,154.191,380.163Zm70.236,31.24a17,17,0,1,1,17-17A17.051,17.051,0,0,1,224.427,411.4Zm0-340.023a17,17,0,1,1,17-17A17.051,17.051,0,0,1,224.427,71.38Zm93.506,314.946a17.041,17.041,0,1,1,6.269-23.27A17.051,17.051,0,0,1,317.933,386.326ZM324.2,85.618a17.041,17.041,0,1,1-6.269-23.27A17.12,17.12,0,0,1,324.2,85.618ZM386.363,317.9a17.041,17.041,0,1,1-6.269-23.27A17.12,17.12,0,0,1,386.363,317.9Zm8.076-76.505a17,17,0,1,1,17-17A17.051,17.051,0,0,1,394.438,241.391Z" transform="translate(-3.372 -3.375)" fill="#c8b88e"/>
</svg>
