<svg xmlns="http://www.w3.org/2000/svg" id="Capa_1" data-name="Capa 1" viewBox="0 0 1920 252.78"><polygon points="18.96 144.5 85.52 144.5 85.52 128.39 18.96 128.39 18.96 87.62 93.67 87.62 93.67 71.12 0 71.12 0 203.85 96.33 203.85 96.33 187.36 18.96 187.36 18.96 144.5"/><polygon points="245.26 71.12 190.62 164.36 135.28 71.12 119.73 71.12 119.73 203.85 137.94 203.85 137.94 107.67 185.91 187.74 194.63 187.74 242.62 107.06 242.79 203.85 261 203.85 260.81 71.12 245.26 71.12"/><path d="M367.73,76.62c-16.58-8.86-62.36-4.55-81.53-5.5V203.86h19v-40.2c17.24-.46,48,2.26,62.57-5.6C401.85,144.68,401.86,90,367.73,76.62ZM365,139.39c-11,11.06-44.19,7.12-59.82,7.77V87.62c15.74.69,48.73-3.31,59.82,7.77C377.51,104.77,377.51,130,365,139.39Z"/><polygon points="431.39 71.12 412.43 71.12 412.43 203.85 503.26 203.85 503.26 187.36 431.39 187.36 431.39 71.12"/><polygon points="544.02 144.5 610.58 144.5 610.58 128.39 544.02 128.39 544.02 87.62 618.73 87.62 618.73 71.12 525.06 71.12 525.06 203.85 621.39 203.85 621.39 187.36 544.02 187.36 544.02 144.5"/><path d="M692.12,71.12,632,203.86h19.53l14.58-33.19h70.57l14.59,33.19h19.91L710.89,71.12ZM672.79,155.5l28.62-65.13L730,155.5Z"/><polygon points="771.75 100.89 812.52 100.89 812.52 203.85 850.07 203.85 850.07 100.89 890.64 100.89 890.64 71.12 771.75 71.12 771.75 100.89"/><polygon points="941.84 150.57 1000.81 150.57 1000.81 122.51 941.84 122.51 941.84 100.14 1008.77 100.14 1008.77 71.12 904.67 71.12 904.67 203.85 1011.24 203.85 1011.24 174.84 941.84 174.84 941.84 150.57"/><path d="M1073.53,109.9c15.89-16.11,44.39-12.71,57.93,5.21l23.89-21.61c-38.53-48.89-133.22-22.34-130.08,44-3.08,66.42,91.4,92.73,130.08,44l-23.89-21.62C1095.88,202.43,1038.6,150.68,1073.53,109.9Z"/><polygon points="1260.77 71.12 1260.77 120.99 1209.58 120.99 1209.58 71.12 1172.03 71.12 1172.03 203.85 1209.58 203.85 1209.58 152.09 1260.77 152.09 1260.77 203.85 1298.32 203.85 1298.32 71.12 1260.77 71.12"/><path d="M1572.6,252.78H1441.82a61.08,61.08,0,0,1-61-61V61a61.08,61.08,0,0,1,61-61H1572.6a18.64,18.64,0,0,1,0,37.27H1441.82A23.75,23.75,0,0,0,1418.1,61V191.77a23.75,23.75,0,0,0,23.72,23.73H1572.6a18.64,18.64,0,0,1,0,37.28Z"/><path d="M1813.41,252.78a18.64,18.64,0,0,1-18.63-18.64V61a23.76,23.76,0,0,0-23.73-23.73H1640.28c-24.3-.05-24.43-37.19,0-37.27h130.77a61.08,61.08,0,0,1,61,61V234.14A18.64,18.64,0,0,1,1813.41,252.78Z"/><path d="M1473.18,161.34c-45.94-.83-45.93-69.08,0-69.9C1519.11,92.26,1519.1,160.52,1473.18,161.34Z"/><path d="M1885.55,69.9c-45.93-.82-45.92-69.08,0-69.9C1931.49.82,1931.48,69.08,1885.55,69.9Z"/></svg>