<svg xmlns="http://www.w3.org/2000/svg" xmlns:svg="http://www.w3.org/2000/svg" width="640" height="480" data-name="Capa 1"><g class="layer"><title>Layer 1</title><path id="svg_4" d="m254.49,366.29l-130.78,0a61.08,61.08 0 0 1 -61,-61l0,-130.78a61.08,61.08 0 0 1 61,-61l130.78,0a18.64,18.64 0 0 1 0,37.27l-130.78,0a23.75,23.75 0 0 0 -23.72,23.73l0,130.77a23.75,23.75 0 0 0 23.72,23.73l130.78,0a18.64,18.64 0 0 1 0,37.28z"/><path id="svg_3" d="m495.3,366.29a18.64,18.64 0 0 1 -18.63,-18.64l0,-173.14a23.76,23.76 0 0 0 -23.73,-23.73l-130.77,0c-24.3,-0.05 -24.43,-37.19 0,-37.27l130.77,0a61.08,61.08 0 0 1 61,61l0,173.14a18.64,18.64 0 0 1 -18.64,18.64z"/><path id="svg_2" d="m155.07,274.85c-45.94,-0.83 -45.93,-69.08 0,-69.9c45.93,0.82 45.92,69.08 0,69.9z"/><path id="svg_1" d="m567.44,183.41c-45.93,-0.82 -45.92,-69.08 0,-69.9c45.94,0.82 45.93,69.08 0,69.9z"/></g></svg>