<?xml version="1.0" standalone="no"?>
<!DOCTYPE svg PUBLIC "-//W3C//DTD SVG 20010904//EN"
 "http://www.w3.org/TR/2001/REC-SVG-20010904/DTD/svg10.dtd">
<svg version="1.0" xmlns="http://www.w3.org/2000/svg"
 width="1280.000000pt" height="1280.000000pt" viewBox="0 0 1280.000000 1280.000000"
 preserveAspectRatio="xMidYMid meet">
<metadata>
Created by potrace 1.14, written by Peter Selinger 2001-2017
</metadata>
<g transform="translate(0.000000,1280.000000) scale(0.100000,-0.100000)"
fill="#000000" stroke="none">
<path d="M2338 8925 c-2 -3 -24 -7 -49 -10 -24 -3 -60 -10 -79 -15 -19 -5 -46
-11 -60 -14 -52 -9 -245 -89 -255 -106 -3 -6 -14 -10 -25 -10 -10 0 -20 -7
-24 -15 -3 -8 -11 -15 -19 -15 -7 0 -22 -8 -33 -18 -10 -9 -32 -26 -49 -36
-64 -41 -245 -223 -245 -247 0 -5 -4 -9 -10 -9 -5 0 -10 -6 -10 -14 0 -8 -4
-16 -8 -18 -9 -3 -114 -178 -107 -178 2 0 -8 -26 -22 -57 -32 -72 -62 -174
-68 -233 -3 -25 -8 -56 -12 -70 -8 -34 -8 -2819 0 -2895 7 -72 22 -160 27
-160 2 0 3 -8 13 -55 11 -50 92 -236 107 -245 6 -4 8 -11 5 -16 -4 -5 -1 -9 4
-9 6 0 11 -6 11 -13 0 -7 9 -23 20 -35 11 -12 20 -25 20 -29 0 -4 14 -23 30
-42 16 -18 42 -49 57 -68 30 -38 87 -93 143 -139 19 -16 37 -31 40 -34 14 -14
71 -50 80 -50 5 0 10 -4 10 -8 0 -16 229 -122 295 -137 6 -1 17 -4 25 -7 20
-8 120 -28 168 -35 50 -7 2824 -11 2837 -4 10 5 17 8 45 13 33 7 86 34 110 55
58 51 66 60 91 98 14 22 31 56 38 75 14 40 30 150 22 150 -3 0 -6 15 -5 32 1
18 -9 57 -22 86 -47 107 -120 174 -232 211 -60 21 -75 21 -1424 22 -1467 1
-1408 -1 -1518 51 -115 56 -216 184 -246 311 -1 4 -2 8 -4 10 -1 1 -3 20 -5
42 -8 89 -10 125 -5 125 3 0 5 23 5 50 0 28 -4 50 -8 50 -4 0 -3 8 2 19 6 10
8 21 5 24 -7 7 -11 97 -4 97 3 0 4 21 2 47 -1 27 -3 54 -2 61 0 6 0 18 0 25 1
6 -1 33 -2 60 -2 26 -1 47 2 47 7 0 4 89 -3 97 -4 3 -2 13 3 23 5 10 7 20 4
23 -7 7 -11 97 -4 97 3 0 4 21 2 47 -1 27 -3 54 -2 61 0 6 0 18 0 25 1 6 -1
33 -2 60 -2 26 -1 47 2 47 3 0 5 23 5 50 0 28 -4 50 -8 50 -4 0 -3 8 2 19 6
10 8 21 5 24 -7 7 -11 97 -4 97 3 0 4 21 2 47 -1 27 -2 58 -2 71 0 12 0 30 0
40 0 9 0 33 1 52 0 19 0 41 0 48 -1 16 -1 45 0 107 0 17 0 37 -1 45 0 8 0 24
0 35 1 11 1 27 1 35 -1 8 -1 31 0 50 0 19 0 41 0 48 -1 15 -1 39 0 55 0 6 -1
29 -3 50 -3 20 -2 37 1 37 3 0 6 23 6 50 0 28 -4 50 -8 50 -4 0 -3 8 2 19 6
10 8 21 5 24 -7 7 -11 97 -4 97 3 0 4 21 2 47 -1 27 -3 54 -2 61 0 6 0 18 0
25 1 6 -1 33 -2 60 -2 26 -1 47 2 47 7 0 4 89 -3 96 -2 3 -1 20 3 39 4 19 4
32 -1 30 -4 -3 -4 7 2 23 5 16 9 33 8 38 -4 14 27 107 51 154 27 53 122 150
170 175 19 10 38 23 42 29 4 6 8 7 8 3 0 -4 9 -3 21 3 11 6 30 13 42 16 12 2
36 7 52 11 17 3 642 7 1390 8 748 2 1367 5 1375 7 8 3 29 9 45 13 28 7 105 55
131 80 108 106 146 275 91 409 -24 58 -119 176 -142 176 -6 0 -16 5 -23 12 -6
6 -17 13 -24 14 -7 1 -33 9 -57 18 -39 14 -188 16 -1441 16 -769 0 -1399 -3
-1402 -5z"/>
<path d="M6345 8916 c-22 -7 -43 -13 -48 -14 -4 -1 -21 -9 -38 -18 -91 -47
-160 -152 -175 -266 -10 -74 -11 -88 -6 -93 3 -3 7 -22 9 -43 1 -20 7 -47 13
-59 5 -13 16 -35 23 -50 36 -81 133 -157 227 -179 19 -4 652 -9 1405 -9 1116
-1 1378 -4 1415 -15 25 -8 47 -14 50 -14 21 -3 123 -63 151 -89 81 -75 122
-147 156 -277 3 -8 6 -823 8 -1810 2 -987 5 -1808 8 -1823 3 -15 10 -34 16
-41 6 -7 8 -15 5 -18 -7 -8 87 -129 110 -142 11 -6 28 -18 39 -27 31 -28 127
-53 197 -52 56 1 99 7 108 13 1 2 5 3 10 4 4 1 32 15 62 32 57 33 113 88 141
139 49 88 47 6 47 1936 0 1007 -4 1828 -9 1859 -5 30 -11 69 -13 85 -12 75
-51 193 -102 301 -28 60 -103 178 -115 182 -5 2 -9 9 -9 16 0 7 -43 56 -95
111 -52 54 -95 96 -95 92 0 -3 -17 9 -37 28 -20 18 -48 40 -62 47 -14 7 -28
15 -31 18 -19 19 -178 97 -247 121 -57 20 -72 24 -123 35 -14 3 -32 7 -40 9
-8 2 -15 4 -15 5 0 10 -275 13 -1485 16 -1118 2 -1423 0 -1455 -10z"/>
<path d="M11177 8908 c-42 -10 -91 -25 -107 -33 -17 -9 -30 -12 -30 -8 0 5 -4
3 -8 -3 -4 -6 -27 -21 -51 -34 -24 -12 -79 -57 -122 -99 -61 -62 -86 -96 -120
-166 -60 -124 -78 -211 -74 -354 3 -100 8 -149 15 -158 2 -2 3 -6 4 -10 10
-47 23 -81 59 -153 111 -225 351 -362 620 -354 91 3 147 8 155 14 1 2 5 3 10
4 115 25 229 91 320 185 221 227 251 628 68 901 -53 79 -178 196 -197 184 -5
-3 -9 -1 -9 3 0 14 -117 67 -175 79 -145 29 -236 30 -358 2z"/>
<path d="M3099 7106 c-2 -2 -31 -6 -64 -10 -112 -12 -172 -29 -267 -76 -67
-34 -86 -49 -153 -115 -62 -62 -80 -85 -111 -142 -90 -159 -114 -385 -62 -566
6 -23 12 -45 14 -49 1 -5 3 -10 4 -13 1 -3 3 -8 4 -12 19 -75 129 -219 217
-285 61 -47 185 -104 252 -117 4 0 8 -1 10 -2 35 -12 207 -16 273 -6 223 32
406 166 505 372 13 28 24 52 25 55 0 3 6 25 13 50 36 121 37 308 3 418 -6 17
-9 32 -7 32 7 0 -68 145 -95 184 -60 87 -162 171 -255 211 -73 32 -80 35 -105
39 -14 2 -32 7 -40 10 -8 3 -43 7 -78 10 -35 3 -67 8 -71 10 -5 3 -10 4 -12 2z"/>
</g>
</svg>
